<svg version="1" xmlns="http://www.w3.org/2000/svg" width="933.333" height="933.333" viewBox="0 0 700.000000 700.000000"><path d="M65 18.9L39.5 37.7l-.3 330.2C39 644 39.2 698 40.3 697.3c.8-.4 26.9-19.4 58-42.1l56.7-41.4.2-163.6.3-163.7 64 90.7c35.2 49.9 100.5 142.5 145 205.7l81 115 64.1.1h64.1l45.1-32.8 45-32.7-63.1-.3-63.2-.3-221.8-313.7C193.7 145.7 93.1 3.5 92.2 2.3 90.5.2 90.4.3 65 18.9zM479.2 42.7L422 84.4v89l.1 89.1 56.8 80.4c31.3 44.2 57.4 80.8 58 81.4.8.8 1.1-57.7 1.1-211.1C538 96.5 537.6 1 537.2 1s-26.5 18.8-58 41.7z"/></svg>