<svg xmlns="http://www.w3.org/2000/svg" version="1.1" x="0px" y="0px" width="160px" height="128px" viewBox="0 0 480 383.5" enable-background="new 0 0 480 383.5" xml:space="preserve"><polygon fill="#A3A3A3" points="45,337.295 45,284.114 133.636,195.477 177.955,239.795 319.772,97.977 435,213.204 435,337.295 "/><path fill="#A3A3A3" d="M45 106.841c0-14.773 5.17-27.329 15.511-37.67C70.852 58.83 83.408 53.66 98.181 53.66s27.33 5.17 37.67 15.511c10.341 10.341 15.512 22.897 15.512 37.67s-5.17 27.33-15.512 37.67c-10.341 10.341-22.897 15.511-37.67 15.511s-27.329-5.17-37.67-15.511C50.17 134.17 45 121.614 45 106.841z"/><path fill="#A3A3A3" d="M476 4.136v375.5H4V4.136H476M480 0.136H0v383.5h480V0.136L480 0.136z"/></svg>