<svg xmlns="http://www.w3.org/2000/svg" viewBox="0 0 435 512" fill="none"><path fill="#fff" fill-rule="evenodd" d="M0 32A32 32 0 0 1 32 0h371a32 32 0 0 1 32 32v448a32 32 0 0 1-32 32H32a32 32 0 0 1-32-32v-88c0-22 18-40 40-40h22c10 0 18 8 18 18v62h275V80H80v62c0 10-8 18-18 18H40c-22 0-40-18-40-40V32Z" clip-rule="evenodd"/><rect width="201" height="80" y="216" fill="#fff" rx="19"/><path fill="#fff" d="m188.3 376.6 112-103.2a23.7 23.7 0 0 0 0-34.8l-112-103.2a24 24 0 0 0-40.3 17.4v63.5H78v79.4h70v63.5a24 24 0 0 0 40.3 17.4Z"/></svg>
