<svg xmlns="http://www.w3.org/2000/svg" viewBox="0 0 453.54 124.45"><defs><style>.cls-1{fill:#fff;}.cls-2{fill:#009fe3;}</style></defs><title>neos_negative_dark</title><g id="Ebene_2" data-name="Ebene 2"><g id="Layer_1" data-name="Layer 1"><path class="cls-1" d="M410.69,86l4.95-5.54C421.14,85.4,426.25,88,433.75,88c6.7,0,11.49-3.4,11.49-8.47,0-4.51-2.55-6.89-13.49-9.66-12.69-3.25-19.07-7.6-19.07-16.47,0-9.19,8.46-15.52,19.31-15.52,8.06,0,14,2.62,19.71,7.13l-4.63,5.94c-5.27-4.12-9.74-5.86-15.16-5.86-6.15,0-10.86,3-10.86,7.76,0,4.59,3,7.13,14.29,9.9,12.21,2.93,18.2,7.76,18.2,16.31,0,10-8.62,16.16-19.87,16.16C424.73,95.22,417.31,92,410.69,86Z"/><path class="cls-1" d="M327.77,66.55c0-15.68,12.13-28.67,29-28.67s29,13,29,28.67-12.13,28.67-29,28.67S327.77,82.23,327.77,66.55Zm49.72,0c0-12.12-8.54-21.3-20.67-21.3s-20.67,9.19-20.67,21.3,8.54,21.3,20.67,21.3S377.49,78.66,377.49,66.55Z"/><path class="cls-1" d="M302.55,38.83V46H269.83V62.67H299V70H269.83V87.06h33.12v7.21H261.77V38.83Z"/><path class="cls-1" d="M191.07,38.83l32.48,40.94V38.83h7.9V94.27h-6.62L191.46,52.21V94.27h-7.9V38.83Z"/><polygon class="cls-2" points="88.83 0 68.12 15.1 68.12 46.67 88.83 75.95 88.83 0"/><polygon class="cls-2" points="88.83 112.57 9.22 0 0 6.74 0 124.45 20.71 109.35 20.71 51.06 72.49 124.45 95.14 124.45 111.48 112.57 88.83 112.57"/><polygon class="cls-1" points="20.71 51.06 20.71 109.35 0 124.45 22.65 124.45 43.36 109.35 43.36 83.17 20.71 51.06"/><polygon class="cls-1" points="88.83 75.95 88.83 0 111.48 0 111.48 112.57 88.83 112.57 9.22 0 35.11 0 88.83 75.95"/></g></g></svg>